<svg width="24" height="24" viewBox="0 0 24 24" fill="none" xmlns="http://www.w3.org/2000/svg">
<g clip-path="url(#clip0_1529_2317)">
<path fill-rule="evenodd" clip-rule="evenodd" d="M8 4.75C6.20507 4.75 4.75 6.20507 4.75 8V16C4.75 17.7949 6.20507 19.25 8 19.25H16C17.7949 19.25 19.25 17.7949 19.25 16V8C19.25 6.20507 17.7949 4.75 16 4.75H8ZM3.25 8C3.25 5.37665 5.37665 3.25 8 3.25H16C18.6234 3.25 20.75 5.37665 20.75 8V16C20.75 18.6234 18.6234 20.75 16 20.75H8C5.37665 20.75 3.25 18.6234 3.25 16V8ZM12 9.75C10.7574 9.75 9.75 10.7574 9.75 12C9.75 13.2426 10.7574 14.25 12 14.25C13.2426 14.25 14.25 13.2426 14.25 12C14.25 10.7574 13.2426 9.75 12 9.75ZM8.25 12C8.25 9.92893 9.92893 8.25 12 8.25C14.0711 8.25 15.75 9.92893 15.75 12C15.75 14.0711 14.0711 15.75 12 15.75C9.92893 15.75 8.25 14.0711 8.25 12ZM17.875 7.5C17.875 6.74061 17.2594 6.125 16.5 6.125C15.7406 6.125 15.125 6.74061 15.125 7.5V7.501C15.125 8.26039 15.7406 8.876 16.5 8.876C17.2594 8.876 17.875 8.26039 17.875 7.501V7.5Z" fill="#ADB5BD"/>
</g>
<defs>
<clipPath id="clip0_1529_2317">
<rect width="24" height="24" fill="white"/>
</clipPath>
</defs>
</svg>
