<svg width="24" height="24" viewBox="0 0 24 24" fill="none" xmlns="http://www.w3.org/2000/svg">
<g clip-path="url(#clip0_1529_2338)">
<path fill-rule="evenodd" clip-rule="evenodd" d="M19.2187 4.15712C17.8338 2.91543 15.9714 2.95587 14.357 3.56039C12.4823 4.26237 11.2247 5.9956 11.25 8.00468V8.24003C8.55859 8.09632 6.19112 6.77189 4.60983 4.56317C4.46058 4.35471 4.2152 4.23693 3.9592 4.25088C3.70321 4.26482 3.47207 4.40857 3.34636 4.63201L4 4.99977C3.34636 4.63201 3.34615 4.63237 3.34593 4.63276L3.34542 4.63368L3.34409 4.63605L3.34034 4.64283L3.32852 4.66448C3.31879 4.68248 3.30544 4.70754 3.28898 4.73933C3.25609 4.80288 3.2107 4.89344 3.15699 5.00823C3.04968 5.23754 2.90836 5.56512 2.76675 5.96846C2.485 6.77097 2.19422 7.89571 2.18179 9.15474C2.1693 10.4195 2.43825 11.8324 3.28949 13.1773C3.96559 14.2455 4.98682 15.2357 6.4572 16.0691C5.0443 16.8585 3.63911 17.313 2.02917 17.2503C1.68111 17.2368 1.36953 17.4647 1.27697 17.8005C1.18441 18.1363 1.33522 18.4916 1.64107 18.6583C5.07551 20.5302 8.88585 21.2116 12.2431 20.237L12.2432 20.237C16.0583 19.1287 19.2042 16.2596 20.4071 11.9776L20.4081 11.974C20.7528 10.7227 20.929 9.43117 20.9322 8.1336C20.9327 8.13238 20.9332 8.13114 20.9338 8.12987C20.9672 8.05362 21.0199 7.94438 21.092 7.80111C21.171 7.64392 21.2611 7.46963 21.361 7.27627C21.4478 7.10825 21.5421 6.92583 21.643 6.72774C22.0447 5.9393 22.5386 4.93119 22.7221 4.21247C22.7404 4.14743 22.75 4.07934 22.75 4.00977V4.00877C22.75 3.62975 22.4672 3.3103 22.091 3.26431C21.9295 3.24456 21.7725 3.2779 21.6387 3.3515C20.9611 3.67934 20.3145 3.85642 19.5832 4.05668C19.4641 4.0893 19.3427 4.12252 19.2187 4.15712ZM20.6729 5.30899C20.4054 5.38851 20.1423 5.46034 19.8865 5.5302C19.6551 5.59337 19.4297 5.65493 19.2123 5.7191C18.9332 5.80145 18.6317 5.71496 18.4387 5.49718C17.6054 4.5569 16.3252 4.4251 14.883 4.96514C13.5654 5.45854 12.7315 6.64685 12.7499 7.98948L12.7501 7.99977H12.75V8.99977C12.75 9.40651 12.4258 9.73912 12.0192 9.74952C8.95847 9.82781 6.1845 8.61341 4.19425 6.43084C4.19019 6.44227 4.18613 6.45377 4.18206 6.46535C3.93537 7.168 3.69203 8.12445 3.68172 9.16955C3.67145 10.2089 3.89112 11.3231 4.55695 12.3751C5.2217 13.4254 6.36641 14.4694 8.29972 15.3123C8.55131 15.4219 8.72289 15.6603 8.74708 15.9337C8.77127 16.207 8.64421 16.4718 8.4158 16.624C7.2568 17.396 6.06466 18.0409 4.76001 18.4129C7.19832 19.2667 9.65693 19.4258 11.8248 18.7965C15.1692 17.825 17.9069 15.3288 18.9624 11.5738C19.2806 10.4183 19.4386 9.22448 19.432 8.02592C19.4312 7.87615 19.4747 7.74861 19.4876 7.71085L19.4886 7.70781C19.5095 7.64645 19.5353 7.58401 19.56 7.52761C19.6101 7.41338 19.6776 7.27497 19.7518 7.1273C19.8309 6.97006 19.9295 6.77904 20.0352 6.57439C20.1232 6.40409 20.216 6.22436 20.3065 6.04679C20.4323 5.7998 20.5567 5.55076 20.6729 5.30899Z" fill="#ADB5BD"/>
</g>
<defs>
<clipPath id="clip0_1529_2338">
<rect width="24" height="24" fill="white"/>
</clipPath>
</defs>
</svg>
