<svg width="20" height="20" viewBox="0 0 20 20" fill="none" xmlns="http://www.w3.org/2000/svg">
<g clip-path="url(#clip0_333_1820)">
<path d="M15.625 0H4.37501C3.09373 0 1.94115 0.550859 1.14099 1.42855H18.859C18.0589 0.550859 16.9063 0 15.625 0Z" fill="#FF4B55"/>
<path d="M18.859 1.42847H1.14098C0.765513 1.84038 0.467739 2.32429 0.27063 2.85706H19.7293C19.5323 2.32429 19.2345 1.84038 18.859 1.42847Z" fill="white"/>
<path d="M19.7292 2.85718H0.270469C0.105312 3.30358 0.0110156 3.78433 0.000976562 4.28573H19.9987C19.9887 3.78433 19.8944 3.30358 19.7292 2.85718Z" fill="#FF4B55"/>
<path d="M0.00113281 4.28564C0.000546875 4.31537 0 4.3451 0 4.37494V5.71424H20V4.37494C20 4.3451 19.9995 4.31537 19.9989 4.28564H0.00113281Z" fill="white"/>
<path d="M20 5.71436H0V7.14291H20V5.71436Z" fill="#FF4B55"/>
<path d="M20 7.14307H0V8.57162H20V7.14307Z" fill="white"/>
<path d="M20 8.57153H0V10.0001H20V8.57153Z" fill="#FF4B55"/>
<path d="M0 10.5263H0.526328L0.526445 11.4286H20V10H0V10.5263Z" fill="white"/>
<path d="M0.526328 10.5264H0V11.4286V12.8572H20V11.4286H0.526445L0.526328 10.5264Z" fill="#FF4B55"/>
<path d="M20 12.8569H0V14.2855H20V12.8569Z" fill="white"/>
<path d="M0 15.6249C0 15.6548 0.000546875 15.6845 0.00113281 15.7142H19.9989C19.9995 15.6845 20 15.6548 20 15.6249V14.2856H0V15.6249Z" fill="#FF4B55"/>
<path d="M0.270713 17.1429H19.7294C19.8946 16.6965 19.9889 16.2158 19.9989 15.7144H0.0012207C0.0112598 16.2158 0.105557 16.6965 0.270713 17.1429Z" fill="white"/>
<path d="M1.1411 18.5716H18.8591C19.2346 18.1597 19.5324 17.6758 19.7295 17.1431H0.270752C0.467861 17.6758 0.765635 18.1597 1.1411 18.5716Z" fill="#FF4B55"/>
<path d="M4.37501 20.0001H15.625C16.9063 20.0001 18.0589 19.4492 18.859 18.5715H1.14099C1.94115 19.4492 3.09373 20.0001 4.37501 20.0001Z" fill="white"/>
<path d="M11.4286 0H4.37426C1.95836 0.000429687 0 1.95902 0 4.375V11.4286H11.4286V0Z" fill="#41479B"/>
<path d="M2.45091 5.70851C2.45091 4.00999 3.82955 2.63218 5.5265 2.63218C5.95345 2.63218 6.35947 2.7196 6.7292 2.8771C6.7772 2.89753 6.81334 2.83074 6.77021 2.8014C6.15841 2.38492 5.41029 2.15679 4.60783 2.19847C2.84357 2.29019 1.40095 3.71121 1.28689 5.47417C1.15423 7.5248 2.77693 9.22355 4.79506 9.22355C5.52435 9.22355 6.20232 8.99882 6.76533 8.61781C6.80869 8.58847 6.77275 8.52152 6.72455 8.54195C6.35603 8.6982 5.95166 8.78492 5.5265 8.78492C3.82955 8.78492 2.45091 7.4071 2.45091 5.70851Z" fill="#FFE15A"/>
<path d="M9.48164 5.70851L10.7819 5.20538C10.8462 5.1805 10.8243 5.08452 10.7555 5.09003L9.36629 5.20128L10.321 4.18073C10.3681 4.13042 10.3068 4.05351 10.2472 4.08823L9.04063 4.79214L9.45707 3.4605C9.47762 3.39476 9.38899 3.3521 9.35047 3.40921L8.56934 4.56636L8.36895 3.18522C8.35907 3.11702 8.26063 3.11694 8.25063 3.18515L8.12262 4.05905L8.0695 4.42886L8.04907 4.56636L7.26793 3.41022C7.22934 3.35312 7.14071 3.39585 7.16137 3.46159L7.57938 4.79214L6.37285 4.08823C6.31332 4.05351 6.252 4.13038 6.29907 4.18073L7.25375 5.20128L5.86414 5.09003C5.79539 5.08452 5.77348 5.18054 5.83782 5.20538L7.13922 5.70847L5.83778 6.21167C5.77348 6.23655 5.79535 6.33253 5.8641 6.32702L7.25375 6.21577L6.29903 7.2389C6.25199 7.28929 6.31348 7.36608 6.37293 7.33128L7.57938 6.62491L7.16137 7.95546C7.14071 8.0212 7.22938 8.06398 7.26793 8.00687L8.04903 6.85069L8.06946 6.99144L8.12258 7.358L8.25059 8.23421C8.26055 8.30245 8.35903 8.30237 8.36891 8.23413L8.5693 6.85069L9.35043 8.00784C9.38899 8.06495 9.47762 8.0223 9.45703 7.95655L9.04059 6.62491L10.2471 7.33128C10.3066 7.36608 10.368 7.28929 10.321 7.2389L9.36625 6.21577L10.7555 6.32702C10.8243 6.33253 10.8462 6.23655 10.7819 6.21167L9.48164 5.70851Z" fill="#FFE15A"/>
</g>
<defs>
<clipPath id="clip0_333_1820">
<rect width="20" height="20" rx="10" fill="white"/>
</clipPath>
</defs>
</svg>
