<svg width="322" height="58" viewBox="0 0 322 58" fill="none" xmlns="http://www.w3.org/2000/svg">
<g clip-path="url(#clip0_333_1819)">
<path d="M35.625 17H24.375C23.0937 17 21.9411 17.5509 21.141 18.4286H38.859C38.0589 17.5509 36.9063 17 35.625 17Z" fill="#FF4B55"/>
<path d="M38.859 18.4285H21.141C20.7655 18.8404 20.4677 19.3243 20.2706 19.8571H39.7293C39.5323 19.3243 39.2345 18.8404 38.859 18.4285Z" fill="white"/>
<path d="M39.7292 19.8572H20.2705C20.1053 20.3036 20.011 20.7843 20.001 21.2857H39.9987C39.9887 20.7843 39.8944 20.3036 39.7292 19.8572Z" fill="#FF4B55"/>
<path d="M20.0011 21.2856C20.0005 21.3154 20 21.3451 20 21.3749V22.7142H40V21.3749C40 21.3451 39.9995 21.3154 39.9989 21.2856H20.0011Z" fill="white"/>
<path d="M40 22.7144H20V24.1429H40V22.7144Z" fill="#FF4B55"/>
<path d="M40 24.1431H20V25.5716H40V24.1431Z" fill="white"/>
<path d="M40 25.5715H20V27.0001H40V25.5715Z" fill="#FF4B55"/>
<path d="M20 27.5263H20.5263L20.5264 28.4286H40V27H20V27.5263Z" fill="white"/>
<path d="M20.5263 27.5264H20V28.4286V29.8572H40V28.4286H20.5264L20.5263 27.5264Z" fill="#FF4B55"/>
<path d="M40 29.8569H20V31.2855H40V29.8569Z" fill="white"/>
<path d="M20 32.6249C20 32.6548 20.0005 32.6845 20.0011 32.7142H39.9989C39.9995 32.6845 40 32.6548 40 32.6249V31.2856H20V32.6249Z" fill="#FF4B55"/>
<path d="M20.2707 34.1429H39.7294C39.8946 33.6965 39.9889 33.2158 39.9989 32.7144H20.0012C20.0113 33.2158 20.1056 33.6965 20.2707 34.1429Z" fill="white"/>
<path d="M21.1411 35.5716H38.8591C39.2346 35.1597 39.5324 34.6758 39.7295 34.1431H20.2708C20.4679 34.6758 20.7656 35.1597 21.1411 35.5716Z" fill="#FF4B55"/>
<path d="M24.375 37.0001H35.625C36.9063 37.0001 38.0589 36.4492 38.859 35.5715H21.141C21.9411 36.4492 23.0937 37.0001 24.375 37.0001Z" fill="white"/>
<path d="M31.4286 17H24.3743C21.9584 17.0004 20 18.959 20 21.375V28.4286H31.4286V17Z" fill="#41479B"/>
<path d="M22.4509 22.7085C22.4509 21.01 23.8295 19.6322 25.5265 19.6322C25.9535 19.6322 26.3595 19.7196 26.7292 19.8771C26.7772 19.8975 26.8133 19.8307 26.7702 19.8014C26.1584 19.3849 25.4103 19.1568 24.6078 19.1985C22.8436 19.2902 21.401 20.7112 21.2869 22.4742C21.1542 24.5248 22.7769 26.2235 24.7951 26.2235C25.5244 26.2235 26.2023 25.9988 26.7653 25.6178C26.8087 25.5885 26.7728 25.5215 26.7245 25.5419C26.356 25.6982 25.9517 25.7849 25.5265 25.7849C23.8295 25.7849 22.4509 24.4071 22.4509 22.7085Z" fill="#FFE15A"/>
<path d="M29.4816 22.7085L30.7819 22.2054C30.8462 22.1805 30.8243 22.0845 30.7555 22.09L29.3663 22.2013L30.321 21.1807C30.3681 21.1304 30.3068 21.0535 30.2472 21.0882L29.0406 21.7921L29.4571 20.4605C29.4776 20.3948 29.389 20.3521 29.3505 20.4092L28.5693 21.5664L28.3689 20.1852C28.3591 20.117 28.2606 20.1169 28.2506 20.1851L28.1226 21.0591L28.0695 21.4289L28.0491 21.5664L27.2679 20.4102C27.2293 20.3531 27.1407 20.3958 27.1614 20.4616L27.5794 21.7921L26.3729 21.0882C26.3133 21.0535 26.252 21.1304 26.2991 21.1807L27.2538 22.2013L25.8641 22.09C25.7954 22.0845 25.7735 22.1805 25.8378 22.2054L27.1392 22.7085L25.8378 23.2117C25.7735 23.2366 25.7954 23.3325 25.8641 23.327L27.2538 23.2158L26.299 24.2389C26.252 24.2893 26.3135 24.3661 26.3729 24.3313L27.5794 23.6249L27.1614 24.9555C27.1407 25.0212 27.2294 25.064 27.2679 25.0069L28.049 23.8507L28.0695 23.9914L28.1226 24.358L28.2506 25.2342C28.2605 25.3025 28.359 25.3024 28.3689 25.2341L28.5693 23.8507L29.3504 25.0078C29.389 25.065 29.4776 25.0223 29.457 24.9566L29.0406 23.6249L30.2471 24.3313C30.3066 24.3661 30.368 24.2893 30.321 24.2389L29.3663 23.2158L30.7555 23.327C30.8243 23.3325 30.8462 23.2366 30.7819 23.2117L29.4816 22.7085Z" fill="#FFE15A"/>
</g>
<g clip-path="url(#clip1_333_1819)">
<rect width="20" height="20" transform="translate(64 17)" fill="#EE1C25"/>
<path d="M68.5834 21.8335L69.9059 25.9038L66.4435 23.3882H70.7232L67.2608 25.9038L68.5834 21.8335Z" fill="#FFFF00"/>
<path d="M72.6268 21.1431L72.5015 22.5642L71.7675 21.3409L73.0804 21.8992L71.6901 22.2192L72.6268 21.1431Z" fill="#FFFF00"/>
<path d="M74.3718 22.811L73.7049 24.0722L73.5031 22.6599L74.4965 23.6839L73.091 23.4393L74.3718 22.811Z" fill="#FFFF00"/>
<path d="M74.5378 25.3263L73.4145 26.2057L73.8064 24.834L74.2956 26.174L73.1121 25.3774L74.5378 25.3263Z" fill="#FFFF00"/>
<path d="M72.598 26.3818L72.5318 27.8069L71.7477 26.615L73.0825 27.1184L71.7068 27.4958L72.598 26.3818Z" fill="#FFFF00"/>
</g>
<g clip-path="url(#clip2_333_1819)">
<g clip-path="url(#clip3_333_1819)">
<path d="M108 17H128V27H108V17Z" fill="#FF0000"/>
<path d="M108 27H128V37H108V27Z" fill="white"/>
</g>
</g>
<g clip-path="url(#clip4_333_1819)">
<g clip-path="url(#clip5_333_1819)">
<path d="M172 17H152V37H172V17Z" fill="#A51931"/>
<path d="M172 20.3333H152V33.6666H172V20.3333Z" fill="#F4F5F8"/>
<path d="M172 23.6667H152V30.3334H172V23.6667Z" fill="#2D2A4A"/>
</g>
</g>
<g clip-path="url(#clip6_333_1819)">
<rect width="20" height="20" transform="translate(196 17)" fill="#DA251D"/>
<path d="M203.616 20.3333L200.968 28.4708L207.898 23.4458H199.333L206.263 28.4708L203.616 20.3333Z" fill="#FFFF00"/>
</g>
<g clip-path="url(#clip7_333_1819)">
<rect width="20" height="20" transform="translate(240 17)" fill="white"/>
<path fill-rule="evenodd" clip-rule="evenodd" d="M247.214 25.1729C247.705 24.4374 248.467 23.9269 249.334 23.7537C250.201 23.5804 251.101 23.7587 251.837 24.2492C252.572 24.7397 253.083 25.5023 253.256 26.3692C253.429 27.2361 253.251 28.1363 252.76 28.8718" fill="#C60C30"/>
<path fill-rule="evenodd" clip-rule="evenodd" d="M252.795 28.8269C252.305 29.5624 251.542 30.0729 250.675 30.2461C249.808 30.4193 248.908 30.2411 248.173 29.7506C247.437 29.2601 246.927 28.4975 246.753 27.6305C246.58 26.7636 246.759 25.8634 247.249 25.1279" fill="#003478"/>
<path fill-rule="evenodd" clip-rule="evenodd" d="M249.985 27.018C250.23 26.6502 250.611 26.395 251.045 26.3083C251.478 26.2217 251.928 26.3109 252.296 26.5561C252.664 26.8014 252.919 27.1827 253.006 27.6161C253.092 28.0496 253.003 28.4997 252.758 28.8674" fill="#003478"/>
<path fill-rule="evenodd" clip-rule="evenodd" d="M250.053 26.9249C249.808 27.2927 249.427 27.5479 248.993 27.6345C248.56 27.7211 248.11 27.632 247.742 27.3868C247.374 27.1415 247.119 26.7602 247.032 26.3268C246.946 25.8933 247.035 25.4432 247.28 25.0754" fill="#C60C30"/>
<path d="M243.537 24.6882L245.384 21.9194L244.922 21.6117L243.076 24.3804L243.537 24.6882Z" fill="black"/>
<path d="M244.921 25.611L246.768 22.8423L246.306 22.5345L244.46 25.3033L244.921 25.611Z" fill="black"/>
<path d="M244.229 25.1496L246.076 22.3809L245.614 22.0731L243.768 24.8418L244.229 25.1496Z" fill="black"/>
<path d="M255.401 30.4355L256.247 29.1665L255.786 28.8588L254.939 30.1278L255.401 30.4355Z" fill="black"/>
<path d="M254.401 31.9353L255.247 30.6663L254.785 30.3585L253.939 31.6275L254.401 31.9353Z" fill="black"/>
<path d="M256.093 30.8972L256.939 29.6282L256.478 29.3204L255.632 30.5894L256.093 30.8972Z" fill="black"/>
<path d="M254.709 29.9738L255.555 28.7048L255.093 28.3971L254.247 29.6661L254.709 29.9738Z" fill="black"/>
<path d="M253.708 31.4736L254.555 30.2046L254.093 29.8968L253.247 31.1658L253.708 31.4736Z" fill="black"/>
<path d="M255.093 32.3969L255.939 31.1279L255.478 30.8202L254.631 32.0892L255.093 32.3969Z" fill="black"/>
<path d="M254.522 23.8217L253.676 22.5527L253.215 22.8605L254.061 24.1295L254.522 23.8217Z" fill="black"/>
<path d="M255.523 25.3215L254.676 24.0525L254.215 24.3602L255.061 25.6292L255.523 25.3215Z" fill="black"/>
<path d="M256.907 24.3982L256.061 23.1292L255.599 23.4369L256.445 24.7059L256.907 24.3982Z" fill="black"/>
<path d="M255.907 22.8984L255.06 21.6294L254.599 21.9371L255.445 23.2061L255.907 22.8984Z" fill="black"/>
<path d="M256.215 24.8598L254.368 22.0911L253.907 22.3988L255.753 25.1675L256.215 24.8598Z" fill="black"/>
<path d="M244.792 30.639L245.638 31.908L246.099 31.6002L245.253 30.3312L244.792 30.639Z" fill="black"/>
<path d="M243.792 29.1392L244.638 30.4082L245.099 30.1005L244.253 28.8315L243.792 29.1392Z" fill="black"/>
<path d="M243.1 29.6009L244.946 32.3696L245.408 32.0619L243.561 29.2931L243.1 29.6009Z" fill="black"/>
<path d="M244.484 28.6778L246.33 31.4465L246.792 31.1388L244.945 28.3701L244.484 28.6778Z" fill="black"/>
</g>
<g clip-path="url(#clip8_333_1819)">
<rect width="20" height="20" transform="translate(284 17)" fill="white"/>
<path d="M294 31C296.209 31 298 29.2091 298 27C298 24.7909 296.209 23 294 23C291.791 23 290 24.7909 290 27C290 29.2091 291.791 31 294 31Z" fill="#BC002D"/>
</g>
<rect x="0.5" y="0.5" width="321" height="57" rx="4.5" stroke="#7B61FF" stroke-dasharray="10 5"/>
<defs>
<clipPath id="clip0_333_1819">
<rect x="20" y="17" width="20" height="20" rx="10" fill="white"/>
</clipPath>
<clipPath id="clip1_333_1819">
<rect x="64" y="17" width="20" height="20" rx="10" fill="white"/>
</clipPath>
<clipPath id="clip2_333_1819">
<rect x="108" y="17" width="20" height="20" rx="10" fill="white"/>
</clipPath>
<clipPath id="clip3_333_1819">
<rect width="20" height="20" fill="white" transform="translate(108 17)"/>
</clipPath>
<clipPath id="clip4_333_1819">
<rect x="152" y="17" width="20" height="20" rx="10" fill="white"/>
</clipPath>
<clipPath id="clip5_333_1819">
<rect width="20" height="20" fill="white" transform="translate(152 17)"/>
</clipPath>
<clipPath id="clip6_333_1819">
<rect x="196" y="17" width="20" height="20" rx="10" fill="white"/>
</clipPath>
<clipPath id="clip7_333_1819">
<rect x="240" y="17" width="20" height="20" rx="10" fill="white"/>
</clipPath>
<clipPath id="clip8_333_1819">
<rect x="284" y="17" width="20" height="20" rx="10" fill="white"/>
</clipPath>
</defs>
</svg>
