<svg width="20" height="20" viewBox="0 0 20 20" fill="none" xmlns="http://www.w3.org/2000/svg">
<g clip-path="url(#clip0_333_1860)">
<rect width="20" height="20" fill="white"/>
<path fill-rule="evenodd" clip-rule="evenodd" d="M7.21404 8.17289C7.70455 7.4374 8.46714 6.92689 9.33405 6.75366C10.201 6.58043 11.1012 6.75868 11.8367 7.24919C12.5722 7.7397 13.0827 8.50229 13.2559 9.3692C13.4291 10.2361 13.2509 11.1363 12.7604 11.8718" fill="#C60C30"/>
<path fill-rule="evenodd" clip-rule="evenodd" d="M12.7954 11.8269C12.3049 12.5624 11.5423 13.0729 10.6753 13.2461C9.80843 13.4193 8.90821 13.2411 8.17272 12.7506C7.43723 12.2601 6.92672 11.4975 6.75349 10.6305C6.58027 9.76364 6.75851 8.86342 7.24902 8.12793" fill="#003478"/>
<path fill-rule="evenodd" clip-rule="evenodd" d="M9.98477 10.018C10.23 9.65022 10.6113 9.39496 11.0448 9.30835C11.4782 9.22174 11.9283 9.31086 12.2961 9.55611C12.6638 9.80137 12.9191 10.1827 13.0057 10.6161C13.0923 11.0496 13.0032 11.4997 12.7579 11.8674" fill="#003478"/>
<path fill-rule="evenodd" clip-rule="evenodd" d="M10.0533 9.92491C9.80806 10.2927 9.42677 10.5479 8.99331 10.6345C8.55986 10.7211 8.10975 10.632 7.742 10.3868C7.37426 10.1415 7.119 9.76021 7.03239 9.32675C6.94577 8.89329 7.0349 8.44318 7.28015 8.07544" fill="#C60C30"/>
<path d="M3.53704 7.68817L5.38354 4.91943L4.92209 4.61168L3.07558 7.38041L3.53704 7.68817Z" fill="black"/>
<path d="M4.92132 8.61102L6.76782 5.84229L6.30637 5.53453L4.45986 8.30327L4.92132 8.61102Z" fill="black"/>
<path d="M4.2293 8.14959L6.07581 5.38086L5.61435 5.07311L3.76784 7.84184L4.2293 8.14959Z" fill="black"/>
<path d="M15.4008 13.4355L16.2471 12.1665L15.7856 11.8588L14.9393 13.1278L15.4008 13.4355Z" fill="black"/>
<path d="M14.4005 14.9353L15.2468 13.6663L14.7854 13.3585L13.9391 14.6275L14.4005 14.9353Z" fill="black"/>
<path d="M16.093 13.8972L16.9393 12.6282L16.4779 12.3204L15.6316 13.5894L16.093 13.8972Z" fill="black"/>
<path d="M14.7086 12.9738L15.5549 11.7048L15.0935 11.3971L14.2472 12.6661L14.7086 12.9738Z" fill="black"/>
<path d="M13.7082 14.4736L14.5546 13.2046L14.0931 12.8968L13.2468 14.1658L13.7082 14.4736Z" fill="black"/>
<path d="M15.0928 15.3969L15.9391 14.1279L15.4776 13.8202L14.6313 15.0892L15.0928 15.3969Z" fill="black"/>
<path d="M14.5225 6.82174L13.6761 5.55273L13.2147 5.86049L14.061 7.12949L14.5225 6.82174Z" fill="black"/>
<path d="M15.5226 8.32149L14.6763 7.05249L14.2148 7.36024L15.0611 8.62924L15.5226 8.32149Z" fill="black"/>
<path d="M16.9069 7.39816L16.0605 6.12915L15.5991 6.4369L16.4454 7.70591L16.9069 7.39816Z" fill="black"/>
<path d="M15.9066 5.8984L15.0603 4.62939L14.5988 4.93715L15.4452 6.20615L15.9066 5.8984Z" fill="black"/>
<path d="M16.2149 7.85979L14.3684 5.09106L13.907 5.39882L15.7535 8.16754L16.2149 7.85979Z" fill="black"/>
<path d="M4.79162 13.639L5.63794 14.908L6.09939 14.6002L5.25308 13.3312L4.79162 13.639Z" fill="black"/>
<path d="M3.79162 12.1392L4.63794 13.4082L5.09939 13.1005L4.25308 11.8315L3.79162 12.1392Z" fill="black"/>
<path d="M3.09954 12.6009L4.94604 15.3696L5.4075 15.0619L3.56099 12.2931L3.09954 12.6009Z" fill="black"/>
<path d="M4.48369 11.6778L6.3302 14.4465L6.79166 14.1388L4.94515 11.3701L4.48369 11.6778Z" fill="black"/>
</g>
<defs>
<clipPath id="clip0_333_1860">
<rect width="20" height="20" rx="10" fill="white"/>
</clipPath>
</defs>
</svg>
