<svg width="20" height="20" viewBox="0 0 20 20" fill="none" xmlns="http://www.w3.org/2000/svg">
<g clip-path="url(#clip0_333_1839)">
<rect width="20" height="20" fill="#EE1C25"/>
<path d="M4.58336 4.8335L5.90588 8.90377L2.44348 6.3882H6.72324L3.26084 8.90377L4.58336 4.8335Z" fill="#FFFF00"/>
<path d="M8.62676 4.14313L8.50152 5.56421L7.76754 4.34093L9.08038 4.89917L7.69014 5.2192L8.62676 4.14313Z" fill="#FFFF00"/>
<path d="M10.3718 5.81105L9.7049 7.07217L9.50315 5.65992L10.4965 6.68387L9.09099 6.43934L10.3718 5.81105Z" fill="#FFFF00"/>
<path d="M10.5378 8.32629L9.41449 9.20565L9.8064 7.83396L10.2956 9.17404L9.11215 8.37744L10.5378 8.32629Z" fill="#FFFF00"/>
<path d="M8.59796 9.38179L8.53176 10.8069L7.7477 9.61504L9.08254 10.1184L7.70678 10.4958L8.59796 9.38179Z" fill="#FFFF00"/>
</g>
<defs>
<clipPath id="clip0_333_1839">
<rect width="20" height="20" rx="10" fill="white"/>
</clipPath>
</defs>
</svg>
